<svg xmlns="http://www.w3.org/2000/svg" viewBox="0 0 300 400" fill="none">
  <!-- Handle -->
  <rect x="100" y="10" width="100" height="40" rx="20" ry="20" stroke="#e98403" stroke-width="8" fill="none" />

  <!-- Lantern body -->
  <path d="M80 50 L220 50 L220 250 Q220 270 200 290 H100 Q80 270 80 250 Z" stroke="#e98403" stroke-width="8" fill="none" />

  <!-- Lantern base -->
  <rect x="70" y="290" width="160" height="30" rx="15" ry="15" stroke="#e98403" stroke-width="8" fill="none" />

  <!-- Star Compass Rose -->
  <svg width="200" height="200" viewBox="0 0 200 200" fill="none" xmlns="http://www.w3.org/2000/svg"> <g clip-path="url(#clip0_105_300)"> <path fill-rule="evenodd" clip-rule="evenodd" d="M188.941 100C192.769 100 196.477 99.4861 200 98.5234C197.199 97.9327 194.295 97.622 191.319 97.622H141.855C133.685 97.622 126.061 95.2811 119.619 91.2334C121.027 82.9896 124.913 75.0866 131.277 68.7229L162.891 37.1094C165.598 34.4024 167.856 31.4169 169.667 28.2452C167.268 29.8079 164.995 31.6416 162.891 33.7463L127.914 68.7229C122.137 74.4999 115.091 78.2351 107.674 79.9285C102.84 73.1033 100 64.7671 100 55.7675V11.0593C100 7.23107 99.4861 3.5229 98.5234 0C97.9327 2.80071 97.622 5.70466 97.622 8.68118L97.622 58.1456C97.622 66.3155 95.2811 73.9388 91.2335 80.3812C82.9897 78.9727 75.0866 75.0865 68.7229 68.7228L37.1094 37.1094C34.4024 34.4024 31.4169 32.1437 28.2452 30.3334C29.8079 32.7315 31.6416 35.0047 33.7463 37.1094L68.7229 72.086C74.4999 77.8631 78.2352 84.9088 79.9285 92.3263C73.1033 97.1596 64.7671 100 55.7675 100H11.0593C7.23105 100 3.52289 100.514 0 101.477C2.80073 102.067 5.70469 102.378 8.68122 102.378H58.1456C66.3156 102.378 73.9388 104.719 80.3812 108.767C78.9727 117.01 75.0866 124.913 68.7229 131.277L37.1094 162.891C34.4025 165.598 32.1438 168.583 30.3335 171.755C32.7316 170.192 35.0047 168.358 37.1094 166.254L72.086 131.277C77.863 125.5 84.9088 121.765 92.3263 120.071C97.1596 126.897 100 135.233 100 144.233V188.941C100 192.769 100.514 196.477 101.477 200C102.067 197.199 102.378 194.295 102.378 191.319V141.854C102.378 133.684 104.719 126.061 108.767 119.619C117.01 121.027 124.913 124.913 131.277 131.277L162.891 162.891C165.598 165.598 168.583 167.856 171.755 169.667C170.192 167.268 168.358 164.995 166.254 162.891L131.277 127.914C125.5 122.137 121.765 115.091 120.072 107.674C126.897 102.84 135.233 100 144.233 100H188.941Z" fill="url(#paint0_linear_105_300)"/> </g> <defs> <linearGradient id="paint0_linear_105_300" x1="100" y1="0" x2="100" y2="200" gradientUnits="userSpaceOnUse"> <stop stop-color="#B8DBFC"/> <stop offset="1" stop-color="#F8FBFE"/> </linearGradient> <clipPath id="clip0_105_300"> <rect width="200" height="200" fill="white"/> </clipPath> </defs> </svg>
  <!-- Long arms -->
    <line x1="150" y1="130" x2="150" y2="90" />
    <line x1="150" y1="130" x2="190" y2="130" />
    <line x1="150" y1="130" x2="150" y2="170" />
    <line x1="150" y1="130" x2="110" y2="130" />

    <!-- Diagonal arms -->
    <line x1="150" y1="130" x2="175" y2="105" />
    <line x1="150" y1="130" x2="175" y2="155" />
    <line x1="150" y1="130" x2="125" y2="155" />
    <line x1="150" y1="130" x2="125" y2="105" />

    <!-- Solid small star center -->
    <polygon points="150,120 155,130 150,140 145,130" fill="#e98403"/>
  </g>

  <!-- Math Compass -->
  <g stroke="#e98403" stroke-width="6" stroke-linecap="round" stroke-linejoin="round">
    <!-- Top hinge circle -->
    <circle cx="150" cy="130" r="6" fill="white" stroke="#e98403" stroke-width="4" />
    <!-- Compass legs -->
    <line x1="147" y1="135" x2="130" y2="190" />
    <line x1="153" y1="135" x2="170" y2="190" />
    <!-- Connecting bar -->
    <line x1="138" y1="170" x2="162" y2="170" />
  </g>
</svg>
