<!-- icon666.com - MILLIONS OF FREE VECTOR ICONS --><svg version="1.1" id="Capa_1" xmlns="http://www.w3.org/2000/svg" xmlns:xlink="http://www.w3.org/1999/xlink" x="0px" y="0px" viewBox="0 0 470 470" style="enable-background:new 0 0 470 470;" xml:space="preserve"><g><path d="M464.37,227.737l-137.711-35.46l55.747-94.413c1.74-2.946,1.265-6.697-1.155-9.117c-2.42-2.42-6.169-2.894-9.117-1.154 l-94.413,55.747L242.263,5.63C241.41,2.316,238.422,0,235,0s-6.41,2.316-7.263,5.63l-35.46,137.711L97.865,87.593 c-2.947-1.742-6.697-1.267-9.117,1.154c-2.419,2.42-2.895,6.171-1.155,9.117l55.747,94.413L5.63,227.737 C2.316,228.59,0,231.578,0,235s2.316,6.41,5.63,7.263l137.711,35.46l-55.747,94.413c-1.74,2.946-1.265,6.697,1.155,9.117 c1.445,1.445,3.365,2.196,5.306,2.196c1.308,0,2.625-0.342,3.811-1.042l94.413-55.747l35.46,137.71 c0.854,3.313,3.841,5.63,7.263,5.63s6.41-2.316,7.263-5.63l35.46-137.711l94.413,55.748c1.187,0.701,2.503,1.042,3.811,1.042 c1.94,0,3.86-0.751,5.306-2.196c2.419-2.42,2.895-6.171,1.155-9.117l-55.747-94.413l137.71-35.46 c3.314-0.853,5.63-3.841,5.63-7.263S467.684,228.59,464.37,227.737z M287.743,287.744l23.796-6.128l43.142,73.065l-73.065-43.143 L287.743,287.744z M313.44,265.638c-0.035,0.009-0.07,0.019-0.106,0.027l-29.473,7.59l-22.344-22.345 c-2.929-2.928-7.678-2.928-10.606,0c-2.929,2.93-2.929,7.678,0,10.607l22.344,22.344l-7.59,29.478 c-0.008,0.033-0.018,0.065-0.025,0.099L235,432.423l-30.644-119.01c-0.004-0.016-7.61-29.552-7.61-29.552l87.115-87.116 l29.302,7.546c0.047,0.012,119.26,30.709,119.26,30.709L313.44,265.638z M287.743,182.256l-6.127-23.795l73.065-43.143 l-43.142,73.064L287.743,182.256z M265.644,156.587c0.004,0.016,7.61,29.552,7.61,29.552L235,224.393l-38.254-38.254l7.59-29.478 c0.008-0.033,0.018-0.065,0.025-0.099L235,37.577L265.644,156.587z M182.257,182.256l-23.796,6.128l-43.142-73.065l73.065,43.143 L182.257,182.256z M186.139,196.745L224.393,235l-38.254,38.255L37.577,235L186.139,196.745z M182.257,287.744l6.127,23.795 l-73.065,43.143l43.142-73.064L182.257,287.744z"/></g></svg>
