<?xml version="1.0" encoding="UTF-8"?>
<svg width="54px" height="87px" viewBox="0 0 54 87" version="1.1" xmlns="http://www.w3.org/2000/svg" xmlns:xlink="http://www.w3.org/1999/xlink">
    <title>Shape</title>
    <g id="Page-1" stroke="none" stroke-width="1" fill="none" fill-rule="evenodd">
        <path d="M51.51,15.0476368 C52.46,11.5776368 52.26,7.87763678 50,7.11763678 C47.73,6.35763678 45.34,9.18763678 44,12.5176368 C43.26,12.6476368 42.53,12.8676368 41.83,13.1976368 C41.35,10.9276368 40.14,8.97763678 38.49,7.65763678 C38.91,4.08763678 38.16,0.447636784 35.8,0.0376367838 C33.43,-0.382363216 31.49,2.77763678 30.67,6.27763678 C29.32,6.73763678 28.06,7.53763678 27,8.62763678 C25.94,7.53763678 24.68,6.73763678 23.33,6.27763678 C22.51,2.77763678 20.56,-0.382363216 18.2,0.0376367838 C15.84,0.447636784 15.09,4.08763678 15.51,7.65763678 C13.86,8.97763678 12.65,10.9276368 12.17,13.1976368 C11.47,12.8676368 10.74,12.6476368 10,12.5176368 C8.66,9.18763678 6.26,6.36763678 4,7.11763678 C1.74,7.87763678 1.54,11.5776368 2.49,15.0476368 C1.8,15.7976368 1.22,16.6676368 0.8,17.6676368 C-0.19,19.9876368 -0.26,22.6476368 0.58,25.1576368 C0.94,26.2376368 1.46,27.2476368 2.12,28.1476368 C3.34,29.8076368 4.17,31.2276368 4.73,32.6076368 L5.44,34.3676368 C7.8,40.2276368 9,46.3976368 9,52.7076368 L9,85.9976368 C9,86.5476368 9.45,86.9976368 10,86.9976368 L44,86.9976368 C44.55,86.9976368 45,86.5476368 45,85.9976368 L45,52.7076368 C45,46.3976368 46.2,40.2176368 48.56,34.3676368 L49.27,32.6076368 C49.83,31.2276368 50.66,29.8076368 51.88,28.1476368 C52.54,27.2376368 53.06,26.2376368 53.42,25.1576368 C54.26,22.6476368 54.19,19.9876368 53.2,17.6676368 C52.78,16.6676368 52.2,15.7976368 51.51,15.0476368 Z M4.2,13.6176368 C3.63,10.9176368 4.12,9.18763678 4.64,9.01763678 C5.16,8.83763678 6.59,9.92763678 7.78,12.4276368 C7.15,12.4776368 6.52,12.6076368 5.91,12.8076368 C5.3,13.0176368 4.73,13.2876368 4.2,13.6176368 L4.2,13.6176368 Z M35.46,1.99763678 C36,2.09763678 36.74,3.74763678 36.58,6.51763678 C36,6.26763678 35.4,6.05763678 34.76,5.94763678 C34.13,5.82763678 33.49,5.80763678 32.86,5.84763678 C33.65,3.19763678 34.92,1.90763678 35.46,1.99763678 Z M18.54,1.99763678 C19.09,1.90763678 20.35,3.19763678 21.14,5.84763678 C20.51,5.80763678 19.87,5.82763678 19.24,5.94763678 C18.6,6.05763678 18,6.26763678 17.42,6.51763678 C17.26,3.74763678 18,2.09763678 18.54,1.99763678 L18.54,1.99763678 Z M49.8,13.6176368 C49.27,13.2876368 48.7,13.0176368 48.09,12.8076368 C47.48,12.6076368 46.85,12.4776368 46.22,12.4276368 C47.41,9.92763678 48.86,8.84763678 49.36,9.01763678 C49.88,9.18763678 50.37,10.9176368 49.8,13.6176368 L49.8,13.6176368 Z" id="Shape" fill="#161616" fill-rule="nonzero"></path>
    </g>
</svg>